# xmcd
#
# Track frame offsets:
#	150
#	11644
#	22744
#	34091
#	47272
#	60460
#	72062
#	85093
#	96457
#	108657
#	120603
#	133352
#	145948
#	158576
#	171685
#	182929
#	195483
#	208520
#	222113
#	235134
#	248469
#	262624
#	273363
#	281565
#	294538
#	304292
#	317198
#	329170
#
# Disc length: 4564 seconds
#
# Revision: 1
# Processed by: cddbd v1.5.2PL0 Copyright (c) Steve Scherf et al.
# Submitted via: EasyCDDAExtractor 10.0.6.1
#
DISCID=9a11d21c
DTITLE=Various Artist - I'm A Bad, Bad Girl - Disc 2
DYEAR=2004
DGENRE=Jump Blues
TTITLE0=Annie Laurie - Stop Talkin' And Start Walkin'
TTITLE1=Annisteen Allen - Baby, I'm Doing It
TTITLE2=Joyce Jackson - Body Rocking Daddy
TTITLE3=Bea Baker - I Want A Lavender Cadillac
TTITLE4=Mabel Scott - Just Give Me A Man
TTITLE5=Jewel King - 3 x 7 =21
TTITLE6=Dorothy Ellis - He's Gone
TTITLE7=Betty Hall Jones - This Joint's Too Hip For Me
TTITLE8=Marie Adams - I'm Gonna Play The Honky Tonks
TTITLE9=Alma Mondy - Streetwalkin' Daddy
TTITLE10=Edna McGriff - Edna's Blues
TTITLE11=Marion Abernathy - Goin' For The Okey-Doke
TTITLE12=Nellie Lutcher - Come On And Get It, Honey
TTITLE13=Willie Lee Patton - Allotment Blues (Dear John)
TTITLE14=Violet Hall - Six Foot Papa (Whole Lotta Woman)
TTITLE15=Sister Rock-A-Way - Young Women's Advice
TTITLE16=Alberta Adams - Messin' Around With The Blues
TTITLE17=Dinah Washington - Please Send Me Someone To Love
TTITLE18=Martha Davis - I Ain't Gettin' Any Younger
TTITLE19=Sister Rosetta Tharpe - Rock Daniel
TTITLE20=Margie Day - Little Red Rooster
TTITLE21=Ella Johnson - Til My Baby Comes Back
TTITLE22=Thelma Cooper - I Need A Man
TTITLE23=Ella Mae Morse - House Of Blue Lights
TTITLE24=Sarah 'Fatwoman' Dean - I Got Your Boogie
TTITLE25=Hadda Brooks - Brooks' Boogie
TTITLE26=Kitty Stevenson - Good Man
TTITLE27=Honey Brown - Rockin' And Jumpin'
EXTD=
EXTT0=1952
EXTT1=1953
EXTT2=1951
EXTT3=1951
EXTT4=1949
EXTT5=1950
EXTT6=1952
EXTT7=1949
EXTT8=1952
EXTT9=1949
EXTT10=1952
EXTT11=1946
EXTT12=1947
EXTT13=1953
EXTT14=1951
EXTT15=1948
EXTT16=1953
EXTT17=1951
EXTT18=1946
EXTT19=1941
EXTT20=1951
EXTT21=1952
EXTT22=1948
EXTT23=1946
EXTT24=1950
EXTT25=1953
EXTT26=1951
EXTT27=1951
PLAYORDER=
